# xmcd
#
# Track frame offsets: 
#        150
#        9550
#        26275
#        34837
#        44987
#        56637
#        67187
#        81462
#        89587
#        104775
#        119262
#        132250
#        143550
#        155437
#        166275
#        180087
#        190000
#        201062
#        212112
#        226337
#
# Disc length: 3144 seconds
#
# Revision: 4
# Processed by: cddbd v1.5.2PL0 Copyright (c) Steve Scherf et al.
# Submitted via: ExactAudioCopyFreeDBPlugin 1.0
#
DISCID=1c0c4614
DTITLE=Various Artist - A Pop 'N' Country Christmas - Disc 3
DYEAR=1999
DGENRE=Christmas
TTITLE0=Wayne Newton - Rudolph The Red-Nosed Reindeer
TTITLE1=The Oak Ridge Boys - Santa Claus Is Comin' To Town
TTITLE2=Willie Nelson - Here Comes Santa Claus
TTITLE3=Buck Owens and His Buckaroos - Santa Looked A Lot Like Daddy
TTITLE4=Molly Bee - I Saw Mommy Kissing Santa Claus
TTITLE5=Bill Haley and His Comets - Rockin' Around The Christmas Tree
TTITLE6=Ray Stevens - The Little Drummer Boy Next Door
TTITLE7=Bobby Vee - Jingle Bell Rock
TTITLE8=Chris LeDoux - 'Twas The Night Before Christmas
TTITLE9=The Forester Sisters - An Old Christmas Card
TTITLE10=The Oak Ridge Boys - Blue Christmas
TTITLE11=Johnny Cash - I Heard The Bells On Christmas Day
TTITLE12=Randy Travis - Pretty Paper
TTITLE13=The Hollywood Pops Orchestra - Medley: Jingle Bells - Up On Th
TTITLE13=e Housetop - Jolly Old Saint Nicholas
TTITLE14=Tony Bennett - Have Yourself A Merry Little Christmas
TTITLE15=The Letterman - The Christmas Waltz
TTITLE16=Al Martino - You're All I Want For Christmas
TTITLE17=The Beach Boys - Merry Christmas Baby
TTITLE18=Lou Rawls - What Are You Doing New Year's Eve?
TTITLE19=Guy Lombardo and His Royal Canadians - Auld Lang Syne
EXTD=
EXTT0=
EXTT1=
EXTT2=
EXTT3=
EXTT4=
EXTT5=
EXTT6=
EXTT7=
EXTT8=
EXTT9=
EXTT10=
EXTT11=
EXTT12=
EXTT13=
EXTT14=
EXTT15=
EXTT16=
EXTT17=
EXTT18=
EXTT19=
PLAYORDER=
